<svg width="28" height="29" viewBox="0 0 28 29" fill="none" xmlns="http://www.w3.org/2000/svg">
<path fill-rule="evenodd" clip-rule="evenodd" d="M14.2608 1.06197C14.005 1.15544 14.0006 1.17616 14.1575 1.55143C14.3263 1.95569 14.6443 2.3047 15.0717 2.55517C15.3899 2.74173 15.5343 2.77345 16.0652 2.77345C16.8976 2.77345 17.0216 2.6656 16.7655 2.16384C16.5139 1.67045 16.1164 1.30056 15.6458 1.12171C15.213 0.957328 14.6178 0.931631 14.2608 1.06197ZM11.0928 1.77267C10.8214 1.88197 10.2834 2.45688 10.147 2.78348C10.0044 3.1247 9.9858 3.96519 10.1128 4.32953C10.2214 4.64104 10.3707 4.64907 10.789 4.36607C11.202 4.08661 11.2643 4.02228 11.4844 3.64878C11.6362 3.39084 11.6679 3.21971 11.6693 2.64737C11.6714 1.76424 11.5545 1.58677 11.0928 1.77267ZM12.769 2.43937C12.5746 2.6464 12.5337 3.09033 12.6948 3.2442C12.7501 3.29688 12.9578 3.46536 13.1566 3.61851C14.9825 5.02595 15.8983 7.04347 15.8907 9.64169C15.8874 10.7738 15.7964 11.2842 15.5501 11.5527C15.1 12.0437 15.0178 12.1531 14.8572 12.476C14.6968 12.7981 14.5199 13.3195 14.3838 13.871L14.321 14.1252L13.7894 13.6301C13.1675 13.0509 12.8832 12.6536 12.4293 11.7296C11.8716 10.5946 11.7359 9.09706 12.0813 7.88909C12.2266 7.381 12.6932 6.3995 12.8769 6.21592C12.9423 6.15039 12.996 6.07073 12.996 6.03893C12.996 6.00712 13.1252 5.84402 13.2832 5.67659C13.8187 5.10882 13.6864 4.46999 13.0333 4.46999C12.7653 4.46999 12.6825 4.52235 12.3441 4.90621C12.0203 5.27337 11.4835 6.0786 11.3581 6.38513C11.339 6.43162 11.2263 6.35075 11.1074 6.20548C10.0514 4.91408 8.61658 4.02156 6.97304 3.63368C5.59346 3.30796 5.43462 3.30282 5.16254 3.57498C4.75917 3.97828 5.03502 4.51793 5.69537 4.61719C6.85025 4.79065 8.02818 5.21202 8.82008 5.73497C9.36945 6.09779 10.1279 6.89603 10.4257 7.42501L10.6924 7.89857L10.7 9.15158C10.7077 10.4499 10.8113 11.0614 11.1626 11.8816C11.2456 12.0755 11.3027 12.2452 11.2892 12.2585C11.2758 12.272 11.1213 12.2473 10.9459 12.2038C10.7705 12.1602 10.2506 12.0721 9.79049 12.0078C7.82637 11.7335 6.43234 10.4712 6.15777 8.71817C6.05916 8.08874 6.10911 6.86728 6.26201 6.17039C6.38592 5.60568 6.30064 5.30067 5.98785 5.19074C5.68421 5.08393 5.35239 5.21611 5.21747 5.49758C4.86075 6.24178 4.76977 8.25079 5.04353 9.33709C5.26485 10.2155 5.73569 11.0796 6.26603 11.5812C6.38986 11.6982 6.4912 11.8157 6.4912 11.8422C6.4912 11.9375 5.28445 11.8876 4.70962 11.7686C4.04966 11.632 3.28138 11.2812 2.91237 10.948C2.77706 10.8258 2.51678 10.5045 2.33401 10.2339C1.89827 9.58885 1.64587 9.49048 1.24201 9.80817C0.966558 10.0248 0.968486 10.3137 1.24859 10.815C1.77636 11.7593 2.97372 12.623 4.12828 12.8923C4.84943 13.0606 6.41459 13.1685 8.13748 13.1689C10.0311 13.1692 10.7518 13.3073 11.9922 13.9075C13.4458 14.6109 14.508 16.0601 14.8812 17.8491C15.0624 18.7175 15.0425 20.3576 14.8409 21.1656C14.681 21.8068 14.2356 23.026 14.1093 23.1679C14.0151 23.2738 13.9773 23.2168 13.7864 22.6826C13.4455 21.7278 13.2397 20.5372 13.2399 19.5193C13.24 18.813 13.4023 17.5208 13.5525 17.0304C13.6793 16.6163 13.6598 16.4817 13.4413 16.2633C13.0402 15.8622 12.5399 16.1045 12.3532 16.7901L12.2397 17.2071L11.9151 17.1581C10.3644 16.9238 8.90231 16.9462 7.45487 17.2261C6.48984 17.4128 5.72228 17.3489 5.13163 17.0328L4.94387 16.9323L5.21562 16.8009C5.54231 16.6428 6.26273 15.9447 6.38809 15.6646C6.90398 14.5122 6.61576 13.5677 5.81005 13.7699C5.58656 13.826 5.35335 14.2089 5.37664 14.4816C5.41607 14.9435 5.3568 15.1125 5.0518 15.4085C4.87858 15.5766 4.60915 15.7534 4.45312 15.8012C4.14563 15.8957 4.13005 15.8833 3.84199 15.3163C3.3885 14.4239 1.30641 13.2717 0.670631 13.5613C0.432363 13.6699 0.278096 14.0103 0.345472 14.2787C0.395744 14.4788 0.819679 14.7805 1.05136 14.781C1.27317 14.7814 1.9214 15.1033 2.28366 15.3929C2.48635 15.5549 2.81135 15.9853 3.12687 16.5095C3.68756 17.4409 4.10877 17.8915 4.67685 18.1675C5.01671 18.3326 5.15267 18.4753 4.97013 18.4753C4.8092 18.4753 3.66267 19.4752 3.24082 19.9833C2.6782 20.6612 2.66045 20.9998 3.17328 21.273C3.43388 21.4117 3.5875 21.3877 3.78449 21.1773C4.96274 19.9194 5.44923 19.523 6.50108 18.9641C7.81119 18.2679 9.09215 18.0644 10.8676 18.2702C11.4813 18.3413 11.9947 18.4109 12.0085 18.4248C12.0224 18.4386 12.0468 19.0248 12.0631 19.7275C12.0792 20.4301 12.1353 21.1857 12.1878 21.4065C12.2402 21.6274 12.3212 21.9707 12.3676 22.1694C12.5829 23.0903 13.1351 24.4091 13.6284 25.1809L13.8851 25.5824L10.8234 25.6226L7.76172 25.6627L7.60834 25.8523C7.4095 26.098 7.41384 26.3518 7.62135 26.6156L7.78774 26.8272H11.2819H14.7762L15.4941 27.5499C16.1486 28.2087 16.2392 28.2727 16.5189 28.2727C16.9083 28.2727 17.1262 28.0509 17.1154 27.6658C17.1092 27.4502 17.0379 27.3251 16.7984 27.1093L16.4893 26.8309L18.3826 26.829C20.2566 26.8272 20.2776 26.8252 20.4505 26.6413C20.6755 26.4018 20.6781 26.0168 20.4562 25.8157C20.3 25.6743 20.1015 25.6597 17.829 25.6226L15.3708 25.5824L15.0623 25.1407L14.7537 24.6991L18.6095 24.6589C22.3469 24.62 22.469 24.6138 22.5866 24.4581C22.7706 24.2146 22.7431 23.8318 22.5272 23.6289C22.3421 23.4551 22.3244 23.4543 18.8359 23.4543H15.3306L15.4839 23.0966C16.0764 21.7145 16.3462 20.2641 16.2556 18.9488C16.2171 18.3895 16.2284 18.1511 16.2954 18.1097C16.543 17.9566 18.0687 18.0653 19.1795 18.3151C19.3783 18.3597 19.6674 18.4192 19.822 18.4472C20.2231 18.5198 21.1938 18.9911 21.6453 19.3325C22.1927 19.7464 22.75 20.3421 23.0849 20.8709C23.4863 21.5049 23.6717 21.6876 23.9137 21.6876C24.4034 21.6876 24.649 21.253 24.4409 20.7547C24.2939 20.4031 23.7191 19.5926 23.3224 19.1779C23.1639 19.0121 23.0342 18.8585 23.0342 18.8366C23.0342 18.8146 23.1524 18.7966 23.2968 18.7966C23.6664 18.7966 24.6579 18.5099 25.1489 18.2611C25.3766 18.1457 25.8073 17.8068 26.1061 17.5081C27.0255 16.5886 27.429 15.4744 27.4424 13.8176C27.4511 12.7295 27.2838 12.3721 26.7656 12.3721C26.3146 12.3721 26.2024 12.596 26.2312 13.439C26.3096 15.7299 25.358 17.1819 23.5562 17.5205C23.0034 17.6243 21.5368 17.5699 20.866 17.4206C20.623 17.3666 20.41 17.3115 20.3925 17.2981C20.375 17.2849 20.5059 17.1165 20.6834 16.924C21.1106 16.4604 21.493 15.6404 21.6185 14.9184C21.7362 14.2419 21.6755 13.9632 21.3814 13.8292C20.8564 13.59 20.5492 13.8274 20.453 14.5463C20.3243 15.5084 19.6903 16.4425 18.9557 16.7522C18.7639 16.8331 18.3105 16.8628 17.2966 16.8608L15.9015 16.8581L15.6935 16.2969C15.4073 15.5247 15.4151 15.0329 15.7207 14.5888C15.9932 14.1927 16.3242 13.924 16.8965 13.6342C17.713 13.2207 18.1144 13.169 20.3645 13.1875C22.4465 13.2046 22.9037 13.1633 23.757 12.8814C25.0991 12.4379 25.956 11.6993 26.7326 10.3166C27.0447 9.76103 26.8293 9.24016 26.2876 9.24016C26.0017 9.24016 25.7902 9.44896 25.5196 9.99849C25.3368 10.3698 24.5863 11.1391 24.1918 11.3596C23.1748 11.9279 21.9643 12.1159 20.2974 11.9643C18.7351 11.8222 17.9988 11.9217 16.409 12.4897C15.9241 12.663 17.4519 11.5608 18.4166 11.0415C18.9265 10.7671 19.0017 10.7163 19.6275 10.2254C20.3703 9.64265 20.8161 9.08124 21.0675 8.41213C21.1825 8.1064 21.2799 7.99156 21.5347 7.86155C21.9541 7.64761 22.9218 7.58088 23.7257 7.71058C24.2973 7.80285 24.3557 7.79875 24.5508 7.65372C24.8227 7.45159 24.8792 6.98951 24.6588 6.76915C24.4192 6.52952 23.6462 6.40721 22.6221 6.44688C22.1199 6.46631 21.655 6.49747 21.5887 6.5161C21.4936 6.54277 21.4645 6.45708 21.4502 6.10823C21.4273 5.5501 21.267 4.59222 21.1613 4.38165C20.9887 4.03786 20.7149 3.94615 20.3532 4.11102C20.0568 4.24602 19.9357 4.59768 20.0733 4.92372C20.2238 5.28044 20.225 7.24528 20.0749 7.63404C19.8005 8.34483 19.7598 8.40634 19.1758 8.9933C18.8145 9.35652 17.316 10.3644 17.1374 10.3644C17.1122 10.3644 17.0916 9.9218 17.0916 9.3807C17.0916 8.50793 16.9377 7.27781 16.801 7.05648C16.6987 6.89089 16.7671 6.311 16.9402 5.87647C17.4742 4.53664 18.5179 3.70853 19.9325 3.5023C20.4558 3.42609 20.7433 3.14984 20.674 2.79031C20.6112 2.46571 20.3576 2.25355 20.0323 2.25355C19.6509 2.25355 18.6504 2.55188 18.0634 2.84066C17.433 3.1508 16.4723 4.06372 16.1884 4.62233L15.9912 5.01029L15.6685 4.53536C15.2048 3.853 14.6478 3.25633 13.9744 2.72077C13.3179 2.19854 13.0533 2.13678 12.769 2.43937ZM22.525 3.94431C22.0948 4.28272 21.9534 4.97367 22.2059 5.50321C22.38 5.86836 22.5649 5.86514 22.8494 5.49212C23.0448 5.23595 23.0744 5.12553 23.0744 4.65116C23.0744 4.20627 23.0436 4.07424 22.9085 3.93909L22.7426 3.77318L22.525 3.94431ZM18.304 5.50843C17.844 5.92401 17.6248 6.49539 17.6745 7.14916C17.7157 7.68954 17.9953 8.3568 18.1805 8.3568C18.3457 8.3568 18.8313 7.84942 19.0152 7.48467C19.2663 6.98686 19.2688 6.24001 19.021 5.71112C18.9185 5.49228 18.785 5.29417 18.7242 5.27088C18.6635 5.24759 18.4744 5.35448 18.304 5.50843ZM2.08731 7.03552C1.92862 7.38365 1.97111 8.30974 2.16456 8.72122C2.35007 9.11593 2.878 9.61864 3.18894 9.69662C3.69953 9.82479 3.85155 8.60213 3.42818 7.77225C3.23247 7.38863 3.16268 7.31226 2.7561 7.03633C2.37424 6.77718 2.20504 6.77702 2.08731 7.03552ZM7.34301 7.03833C7.31619 7.1082 7.29426 7.45376 7.29426 7.8063C7.29426 8.87421 7.75964 9.61206 8.71712 10.0621C8.99169 10.1912 9.25124 10.2753 9.29388 10.249C9.33644 10.2226 9.41562 10.003 9.46983 9.76079C9.6514 8.94937 9.31934 8.01823 8.63995 7.43368C8.08383 6.9553 7.44909 6.76176 7.34301 7.03833ZM13.6427 7.69427C12.9365 8.55041 12.8967 9.72216 13.5393 10.7393C13.8864 11.2888 14.1366 11.18 14.5852 10.2841C14.8678 9.71999 14.8205 8.64598 14.4885 8.08135C14.2842 7.73402 14.0105 7.39313 13.936 7.39313C13.9113 7.39313 13.7793 7.52868 13.6427 7.69427ZM22.6393 8.94648C22.1179 9.123 21.2675 10.0753 21.2675 10.4827C21.2675 10.6548 21.7519 10.7995 22.3079 10.7934C23.1917 10.7839 23.899 10.3379 24.3158 9.52766C24.4973 9.17479 24.5004 9.14612 24.3706 9.01627C24.2022 8.84779 23.0661 8.80201 22.6393 8.94648ZM24.5199 13.7509C24.0256 13.9173 23.7857 14.0566 23.499 14.3432C22.9929 14.8493 22.7213 15.6406 22.8387 16.2664C22.8935 16.5588 22.9024 16.5653 23.1941 16.5262C23.841 16.4394 24.4817 15.9692 24.798 15.3492C25.0843 14.7879 25.126 13.6462 24.8597 13.6633C24.8053 13.6668 24.6524 13.7062 24.5199 13.7509ZM9.02084 14.3933C8.55964 14.5486 8.29439 14.6919 7.99606 14.9468C7.64737 15.2446 7.62986 15.3348 7.87648 15.5625C8.78482 16.4009 10.2821 16.3521 11.2246 15.4535L11.5103 15.1811L11.235 14.9379C10.6245 14.399 9.68778 14.1686 9.02084 14.3933ZM17.8545 14.3976C17.3234 14.5858 16.8721 15.0756 16.7412 15.6057C16.6938 15.7975 16.7167 15.8394 16.909 15.9127C17.1635 16.0097 17.75 15.943 18.0623 15.7814C18.3464 15.6345 18.7512 15.1616 18.9022 14.7999C19.0166 14.5263 19.0154 14.4955 18.8867 14.4014C18.7208 14.2801 18.1914 14.2781 17.8545 14.3976ZM0.682436 16.6016C0.58639 16.6976 0.625981 17.2435 0.758887 17.6549C0.988402 18.3656 1.62972 18.9103 2.35376 19.0095C2.68695 19.0552 2.70173 19.0481 2.7524 18.8174C2.85784 18.3375 2.52152 17.4768 2.06394 17.0553C1.70224 16.7222 0.84377 16.4402 0.682436 16.6016ZM26.126 18.5157C25.6016 18.7012 24.9477 19.5322 25.1594 19.7439C25.1904 19.7749 25.4387 19.8002 25.7111 19.8C26.307 19.7995 26.6643 19.6184 26.9853 19.1543C27.303 18.6947 27.2829 18.5084 26.909 18.4466C26.5156 18.3815 26.5019 18.3827 26.126 18.5157ZM8.8465 19.2859C8.33944 19.4808 7.86821 19.9232 7.63179 20.4261C7.53454 20.6331 7.45487 20.8166 7.45487 20.8338C7.45487 20.9386 8.02633 21.0686 8.48375 21.0679C9.33187 21.0665 10.0429 20.6437 10.4463 19.901C10.6849 19.4617 10.6376 19.3103 10.23 19.2077C9.72239 19.0798 9.32367 19.1024 8.8465 19.2859ZM17.6738 19.2138C17.4685 19.2829 17.4129 19.3463 17.4131 19.5109C17.4137 19.9372 17.9839 20.596 18.6093 20.8929C19.0246 21.09 19.9861 21.1348 20.2918 20.9713C20.5264 20.8457 20.509 20.665 20.2184 20.2068C19.8992 19.7035 19.8499 19.6578 19.3367 19.3894C18.8545 19.1373 18.1286 19.0606 17.6738 19.2138ZM5.57861 23.666C5.314 23.9307 5.30894 24.2066 5.56407 24.4618L5.76114 24.6589H8.77318C11.7682 24.6589 11.7861 24.6579 11.9489 24.4831C12.1719 24.2438 12.1617 23.8497 11.9268 23.6289C11.7428 23.4562 11.7099 23.4543 8.76563 23.4543H5.79037L5.57861 23.666Z" fill="#D2E9F2"/>
</svg>
