<svg width="48" height="48" viewBox="0 0 48 48" fill="none" xmlns="http://www.w3.org/2000/svg">
<path fill-rule="evenodd" clip-rule="evenodd" d="M24.2976 8.64218C24.0053 8.74901 24.0002 8.77269 24.1795 9.20157C24.3725 9.66358 24.7358 10.0624 25.2243 10.3487C25.588 10.5619 25.753 10.5982 26.3598 10.5982C27.3111 10.5982 27.4528 10.4749 27.1602 9.90147C26.8725 9.33758 26.4183 8.91485 25.8804 8.71046C25.3858 8.52259 24.7056 8.49322 24.2976 8.64218ZM20.677 9.45442C20.3668 9.57933 19.752 10.2364 19.5961 10.6096C19.4332 10.9996 19.4119 11.9601 19.5571 12.3765C19.6812 12.7325 19.8518 12.7417 20.3299 12.4183C20.8019 12.0989 20.8731 12.0254 21.1246 11.5985C21.2981 11.3037 21.3343 11.1082 21.3358 10.4541C21.3383 9.44478 21.2047 9.24195 20.677 9.45442ZM22.5927 10.2164C22.3705 10.453 22.3237 10.9603 22.5079 11.1362C22.5711 11.1964 22.8085 11.3889 23.0357 11.5639C25.1224 13.1724 26.1691 15.4782 26.1603 18.4476C26.1566 19.7414 26.0526 20.3247 25.7711 20.6316C25.2567 21.1928 25.1628 21.3178 24.9792 21.6868C24.7959 22.0549 24.5937 22.6507 24.4381 23.2811L24.3664 23.5716L23.7589 23.0057C23.0481 22.3438 22.7232 21.8898 22.2044 20.8338C21.5671 19.5366 21.412 17.8251 21.8067 16.4446C21.9728 15.8639 22.5061 14.7422 22.716 14.5324C22.7908 14.4575 22.8521 14.3665 22.8521 14.3301C22.8521 14.2938 22.9998 14.1074 23.1803 13.916C23.7924 13.2672 23.6411 12.5371 22.8948 12.5371C22.5884 12.5371 22.4938 12.5969 22.1071 13.0356C21.7371 13.4552 21.1236 14.3755 20.9802 14.7258C20.9584 14.7789 20.8296 14.6865 20.6938 14.5205C19.4869 13.0446 17.8471 12.0246 15.9687 11.5813C14.3921 11.209 14.2105 11.2032 13.8996 11.5142C13.4386 11.9751 13.7539 12.5919 14.5085 12.7053C15.8284 12.9035 17.1746 13.3851 18.0796 13.9828C18.7075 14.3974 19.5742 15.3097 19.9146 15.9142L20.2194 16.4554L20.2281 17.8875C20.237 19.3712 20.3554 20.0701 20.7568 21.0075C20.8517 21.2291 20.9169 21.423 20.9015 21.4383C20.8862 21.4536 20.7096 21.4254 20.5092 21.3757C20.3087 21.3259 19.7145 21.2252 19.1887 21.1517C16.944 20.8382 15.3508 19.3956 15.037 17.3921C14.9243 16.6728 14.9814 15.2768 15.1561 14.4804C15.2977 13.835 15.2003 13.4864 14.8428 13.3608C14.4958 13.2387 14.1166 13.3898 13.9624 13.7115C13.5547 14.562 13.4507 16.858 13.7636 18.0995C14.0165 19.1033 14.5546 20.091 15.1607 20.6641C15.3022 20.7979 15.4181 20.9322 15.4181 20.9624C15.4181 21.0713 14.0389 21.0143 13.382 20.8783C12.6277 20.7222 11.7497 20.3213 11.328 19.9405C11.1733 19.8008 10.8759 19.4336 10.667 19.1244C10.169 18.3872 9.88054 18.2748 9.41898 18.6378C9.10418 18.8854 9.10639 19.2156 9.42651 19.7885C10.0297 20.8677 11.3981 21.8548 12.7176 22.1626C13.5418 22.3549 15.3305 22.4782 17.2995 22.4787C19.4636 22.479 20.2874 22.6369 21.7049 23.3228C23.3662 24.1266 24.5801 25.7829 25.0067 27.8275C25.2137 28.82 25.191 30.6943 24.9606 31.6178C24.7779 32.3506 24.2688 33.7439 24.1244 33.9061C24.0169 34.0271 23.9736 33.962 23.7555 33.3514C23.3658 32.2603 23.1306 30.8996 23.1308 29.7363C23.131 28.929 23.3165 27.4523 23.4881 26.8918C23.633 26.4186 23.6107 26.2648 23.361 26.0151C22.9027 25.5567 22.3309 25.8336 22.1175 26.6172L21.9877 27.0937L21.6169 27.0377C19.8445 26.77 18.1736 26.7955 16.5194 27.1155C15.4165 27.3289 14.5393 27.2558 13.8643 26.8946L13.6497 26.7798L13.9603 26.6295C14.3336 26.4489 15.157 25.651 15.3002 25.3309C15.8898 24.0138 15.5604 22.9344 14.6396 23.1655C14.3842 23.2297 14.1177 23.6673 14.1443 23.9789C14.1893 24.5068 14.1216 24.6999 13.773 25.0382C13.5751 25.2304 13.2672 25.4324 13.0888 25.4871C12.7374 25.595 12.7196 25.5809 12.3904 24.9329C11.8721 23.913 9.49259 22.5961 8.76598 22.9272C8.49368 23.0513 8.31737 23.4402 8.39437 23.747C8.45183 23.9757 8.93632 24.3205 9.2011 24.321C9.45459 24.3216 10.1954 24.6894 10.6094 25.0204C10.8411 25.2055 11.2125 25.6974 11.5731 26.2965C12.2139 27.361 12.6953 27.876 13.3445 28.1914C13.7329 28.3801 13.8883 28.5432 13.6797 28.5432C13.4958 28.5432 12.1855 29.6858 11.7033 30.2666C11.0603 31.0413 11.0401 31.4282 11.6262 31.7405C11.924 31.8991 12.0995 31.8716 12.3247 31.6311C13.6713 30.1935 14.2272 29.7405 15.4294 29.1017C16.9266 28.3061 18.3906 28.0736 20.4197 28.3088C21.121 28.39 21.7077 28.4695 21.7235 28.4854C21.7394 28.5011 21.7674 29.1711 21.7859 29.9742C21.8044 30.7772 21.8685 31.6407 21.9284 31.8931C21.9884 32.1455 22.0809 32.5378 22.1339 32.765C22.38 33.8174 23.0111 35.3247 23.5749 36.2067L23.8682 36.6656L20.3691 36.7114L16.8701 36.7573L16.6948 36.974C16.4675 37.2548 16.4725 37.5449 16.7097 37.8463L16.8998 38.0881H20.8932H24.8866L25.7071 38.9141C26.455 39.667 26.5587 39.7401 26.8783 39.7401C27.3234 39.7401 27.5723 39.4867 27.56 39.0466C27.5529 38.8001 27.4715 38.6571 27.1977 38.4105L26.8445 38.0923L29.0082 38.0902C31.15 38.0881 31.1739 38.0859 31.3715 37.8757C31.6287 37.602 31.6317 37.162 31.378 36.9322C31.1995 36.7705 30.9727 36.7538 28.3756 36.7114L25.5662 36.6656L25.2136 36.1608L24.8609 35.656L29.2676 35.6101C33.5388 35.5656 33.6783 35.5586 33.8128 35.3807C34.0231 35.1023 33.9917 34.6649 33.7449 34.433C33.5334 34.2343 33.5131 34.2334 29.5263 34.2334H25.5202L25.6954 33.8246C26.3725 32.2451 26.6809 30.5874 26.5774 29.0843C26.5333 28.4451 26.5463 28.1727 26.6228 28.1253C26.9059 27.9504 28.6495 28.0746 29.919 28.36C30.1462 28.411 30.4766 28.479 30.6532 28.511C31.1117 28.5939 32.221 29.1326 32.7371 29.5228C33.3626 29.9958 33.9996 30.6766 34.3823 31.2809C34.841 32.0055 35.0529 32.2143 35.3295 32.2143C35.8892 32.2143 36.1699 31.7176 35.932 31.1482C35.764 30.7463 35.1071 29.8201 34.6538 29.3461C34.4726 29.1566 34.3244 28.9811 34.3244 28.956C34.3244 28.9309 34.4595 28.9103 34.6245 28.9103C35.0469 28.9103 36.1799 28.5826 36.7412 28.2983C37.0014 28.1664 37.4936 27.7791 37.8351 27.4377C38.8858 26.3869 39.3469 25.1135 39.3623 23.22C39.3723 21.9764 39.181 21.568 38.5888 21.568C38.0733 21.568 37.9451 21.8239 37.9781 22.7873C38.0676 25.4056 36.9801 27.065 34.9209 27.4519C34.2891 27.5706 32.613 27.5084 31.8464 27.3378C31.5687 27.276 31.3252 27.213 31.3052 27.1978C31.2852 27.1827 31.4348 26.9902 31.6377 26.7702C32.1259 26.2404 32.563 25.3032 32.7064 24.478C32.8409 23.7049 32.7716 23.3864 32.4354 23.2333C31.8354 22.9599 31.4843 23.2312 31.3744 24.0528C31.2273 25.1524 30.5027 26.2199 29.6632 26.5739C29.444 26.6663 28.9258 26.7003 27.7671 26.698L26.1726 26.6949L25.9349 26.0535C25.6078 25.1711 25.6168 24.609 25.966 24.1014C26.2774 23.6487 26.6558 23.3417 27.3099 23.0104C28.243 22.5379 28.7017 22.4788 31.2733 22.5C33.6527 22.5195 34.1752 22.4723 35.1504 22.1501C36.6842 21.6432 37.6635 20.7991 38.5511 19.2189C38.9078 18.584 38.6616 17.9887 38.0425 17.9887C37.7158 17.9887 37.4741 18.2273 37.1648 18.8553C36.9558 19.2797 36.0982 20.1589 35.6474 20.4109C34.4851 21.0604 33.1016 21.2753 31.1966 21.102C29.4111 20.9396 28.5696 21.0533 26.7527 21.7024C26.1985 21.9005 27.9446 20.6409 29.0471 20.0474C29.6298 19.7338 29.7158 19.6758 30.431 19.1147C31.2799 18.4487 31.7894 17.8071 32.0767 17.0424C32.2081 16.693 32.3195 16.5617 32.6106 16.4131C33.09 16.1686 34.1959 16.0924 35.1146 16.2406C35.7679 16.346 35.8346 16.3414 36.0576 16.1756C36.3684 15.9446 36.4329 15.4165 36.1811 15.1647C35.9072 14.8908 35.0238 14.751 33.8534 14.7964C33.2795 14.8186 32.7481 14.8542 32.6724 14.8755C32.5636 14.9059 32.5304 14.808 32.5141 14.4093C32.4879 13.7715 32.3047 12.6767 32.1839 12.4361C31.9866 12.0432 31.6737 11.9384 31.2604 12.1268C30.9216 12.2811 30.7832 12.683 30.9404 13.0556C31.1124 13.4633 31.1138 15.7088 30.9423 16.1531C30.6287 16.9655 30.5822 17.0358 29.9148 17.7066C29.5018 18.1217 27.7893 19.2736 27.5852 19.2736C27.5564 19.2736 27.5328 18.7677 27.5328 18.1493C27.5328 17.1519 27.3569 15.746 27.2006 15.4931C27.0837 15.3038 27.1619 14.6411 27.3598 14.1445C27.97 12.6132 29.1629 11.6668 30.7795 11.4311C31.3776 11.344 31.7062 11.0283 31.6269 10.6174C31.5552 10.2465 31.2654 10.004 30.8936 10.004C30.4577 10.004 29.3143 10.3449 28.6434 10.675C27.923 11.0294 26.825 12.0728 26.5006 12.7112L26.2752 13.1545L25.9064 12.6118C25.3765 11.8319 24.7399 11.15 23.9703 10.5379C23.2199 9.94112 22.9176 9.87054 22.5927 10.2164ZM33.7424 11.9363C33.2508 12.323 33.0891 13.1127 33.3777 13.7179C33.5767 14.1352 33.788 14.1315 34.1132 13.7052C34.3365 13.4124 34.3703 13.2862 34.3703 12.7441C34.3703 12.2357 34.3351 12.0848 34.1807 11.9303L33.991 11.7407L33.7424 11.9363ZM28.9184 13.7238C28.3927 14.1988 28.1422 14.8518 28.199 15.599C28.2461 16.2165 28.5656 16.9791 28.7773 16.9791C28.9661 16.9791 29.5211 16.3993 29.7312 15.9824C30.0181 15.4135 30.021 14.5599 29.7379 13.9555C29.6207 13.7054 29.4681 13.479 29.3986 13.4524C29.3293 13.4257 29.1131 13.5479 28.9184 13.7238ZM10.385 15.4691C10.2037 15.867 10.2522 16.9253 10.4733 17.3956C10.6853 17.8467 11.2887 18.4212 11.6441 18.5104C12.2276 18.6568 12.4013 17.2595 11.9175 16.3111C11.6938 15.8726 11.614 15.7854 11.1494 15.47C10.713 15.1739 10.5196 15.1737 10.385 15.4691ZM16.3916 15.4723C16.3609 15.5522 16.3358 15.9471 16.3358 16.35C16.3358 17.5705 16.8677 18.4137 17.962 18.928C18.2758 19.0756 18.5724 19.1717 18.6211 19.1416C18.6698 19.1115 18.7603 18.8605 18.8222 18.5837C19.0297 17.6564 18.6502 16.5922 17.8738 15.9241C17.2382 15.3774 16.5128 15.1562 16.3916 15.4723ZM23.5912 16.222C22.7841 17.2004 22.7387 18.5395 23.473 19.702C23.8697 20.3299 24.1556 20.2056 24.6684 19.1818C24.9913 18.5371 24.9373 17.3096 24.5578 16.6643C24.3243 16.2674 24.0115 15.8778 23.9265 15.8778C23.8982 15.8778 23.7473 16.0327 23.5912 16.222ZM33.873 17.6531C33.2771 17.8548 32.3053 18.9432 32.3053 19.4088C32.3053 19.6054 32.8589 19.7707 33.4942 19.7639C34.5044 19.7529 35.3127 19.2433 35.7891 18.3173C35.9965 17.914 36 17.8812 35.8517 17.7328C35.6592 17.5403 34.3608 17.4879 33.873 17.6531ZM36.0223 23.1438C35.4574 23.334 35.1832 23.4932 34.8556 23.8207C34.2772 24.3991 33.9667 25.3035 34.1009 26.0187C34.1636 26.3529 34.1737 26.3602 34.5071 26.3155C35.2464 26.2164 35.9787 25.6791 36.3401 24.9704C36.6673 24.329 36.715 23.0242 36.4106 23.0437C36.3485 23.0477 36.1737 23.0927 36.0223 23.1438ZM18.3091 23.878C17.782 24.0555 17.4789 24.2192 17.1379 24.5105C16.7394 24.8509 16.7194 24.954 17.0012 25.2142C18.0393 26.1724 19.7505 26.1167 20.8277 25.0897L21.1542 24.7783L20.8395 24.5004C20.1418 23.8845 19.0713 23.6212 18.3091 23.878ZM28.4047 23.8829C27.7978 24.098 27.282 24.6577 27.1324 25.2636C27.0782 25.4828 27.1044 25.5307 27.3242 25.6144C27.6149 25.7253 28.2853 25.649 28.6422 25.4644C28.9669 25.2965 29.4295 24.756 29.6021 24.3427C29.7328 24.03 29.7314 23.9947 29.5844 23.8873C29.3948 23.7486 28.7897 23.7463 28.4047 23.8829ZM8.77947 26.4017C8.66971 26.5115 8.71495 27.1353 8.86685 27.6056C9.12915 28.4178 9.86209 29.0403 10.6896 29.1537C11.0703 29.2059 11.0872 29.1977 11.1451 28.9341C11.2657 28.3856 10.8813 27.402 10.3583 26.9203C9.94496 26.5396 8.96386 26.2173 8.77947 26.4017ZM37.8578 28.5893C37.2585 28.8014 36.5112 29.751 36.7531 29.993C36.7886 30.0284 37.0724 30.0573 37.3836 30.0571C38.0647 30.0565 38.473 29.8496 38.8399 29.3191C39.2029 28.7938 39.18 28.5809 38.7527 28.5103C38.3031 28.436 38.2875 28.4374 37.8578 28.5893ZM18.1098 29.4695C17.5303 29.6922 16.9918 30.1978 16.7216 30.7726C16.6104 31.0092 16.5194 31.2189 16.5194 31.2385C16.5194 31.3583 17.1725 31.5069 17.6953 31.5061C18.6645 31.5045 19.4771 31.0213 19.9381 30.1725C20.2108 29.6705 20.1569 29.4974 19.691 29.3801C19.1109 29.234 18.6552 29.2598 18.1098 29.4695ZM28.1982 29.3871C27.9635 29.4661 27.9 29.5385 27.9003 29.7267C27.9009 30.2139 28.5525 30.9668 29.2673 31.3061C29.742 31.5314 30.8408 31.5826 31.1902 31.3956C31.4582 31.2522 31.4384 31.0457 31.1063 30.522C30.7415 29.9467 30.6851 29.8945 30.0986 29.5878C29.5475 29.2997 28.7179 29.2121 28.1982 29.3871ZM14.3751 34.4754C14.0727 34.7779 14.0669 35.0932 14.3585 35.3848L14.5837 35.6101H18.026C21.4489 35.6101 21.4694 35.609 21.6554 35.4092C21.9103 35.1357 21.8986 34.6853 21.6302 34.433C21.4199 34.2355 21.3823 34.2334 18.0174 34.2334H14.6171L14.3751 34.4754Z" fill="#D6E8F2"/>
<path fill-rule="evenodd" clip-rule="evenodd" d="M23.3316 2.3018C22.5939 2.44442 22.0132 2.83724 20.3393 4.32533C19.9064 4.71025 19.3964 5.10039 19.2059 5.19236C18.7231 5.42556 18.0245 5.39106 16.4084 5.05414C14.3104 4.61672 13.5298 4.7007 12.6924 5.45365C12.141 5.94934 11.8031 6.61813 11.2968 8.21562C10.6396 10.2889 10.45 10.4799 8.39053 11.1445C6.78312 11.6634 6.27366 11.904 5.73768 12.3981C4.87304 13.1951 4.74987 14.1765 5.22675 16.4698C5.38039 17.2086 5.50612 18.0097 5.50612 18.25C5.50612 18.8881 5.17875 19.4515 4.16799 20.5525C3.11493 21.6999 2.7904 22.1557 2.55958 22.8123C2.10932 24.0936 2.46707 24.9555 4.28446 26.9679C4.77061 27.5062 5.24345 28.1119 5.33523 28.3138C5.5711 28.8327 5.54678 29.4238 5.22739 30.9303C4.92627 32.3512 4.87147 33.3352 5.0587 33.9603C5.22638 34.5198 5.92665 35.2462 6.62618 35.5864C6.94401 35.7408 7.69962 36.0205 8.30536 36.2077C9.94975 36.716 10.4049 36.9821 10.7363 37.6293C10.8268 37.8059 11.0965 38.5493 11.3358 39.2813C11.8544 40.8683 12.0079 41.1892 12.5066 41.7303C13.3529 42.6483 14.3102 42.7891 16.4998 42.3172C18.0379 41.9857 18.7629 41.9581 19.2606 42.2119C19.4517 42.3094 20.0687 42.8024 20.6315 43.3074C22.306 44.8098 22.8497 45.1109 23.8739 45.1035C24.7368 45.0972 25.4045 44.7462 26.6018 43.669C28.162 42.2655 28.4368 42.0924 29.172 42.0509C29.6219 42.0255 30.1031 42.0845 30.8905 42.2618C34.3517 43.0411 35.2725 42.5301 36.343 39.2357C37.0692 37.0007 37.1503 36.9205 39.4443 36.1757C41.5908 35.4787 42.292 34.9602 42.6367 33.8148C42.8305 33.171 42.8019 32.7458 42.4468 30.9817C42.2702 30.104 42.1256 29.2457 42.1256 29.0743C42.1256 28.5569 42.5272 27.9111 43.589 26.7216C44.8612 25.2963 45.2461 24.5896 45.2461 23.679C45.2461 22.7733 44.8719 22.0878 43.6013 20.6656C43.0452 20.0431 42.5046 19.3955 42.4001 19.2264C42.0704 18.6928 42.0788 18.1895 42.448 16.3826C42.8203 14.5608 42.8323 13.9165 42.5076 13.1827C42.1232 12.3136 41.403 11.8507 39.4182 11.1972C37.0952 10.4323 37.0433 10.3782 36.2556 7.89311C35.5545 5.68126 34.8345 4.90968 33.3681 4.79881C32.8444 4.75916 32.4231 4.80909 31.2921 5.04505C29.5574 5.40684 28.9112 5.43438 28.4048 5.16813C28.2029 5.06194 27.5214 4.51384 26.8904 3.95023C25.3 2.5295 24.3732 2.10026 23.3316 2.3018ZM23.5012 3.68875C23.0773 3.80742 22.5979 4.1526 21.6132 5.04799C19.6205 6.85997 18.9878 7.02397 16.2676 6.4332C14.8123 6.11721 14.3656 6.0882 13.9069 6.27974C13.4439 6.47321 13.1712 6.96918 12.6099 8.63799C12.3319 9.465 12.0019 10.3165 11.8768 10.5302C11.3454 11.4378 10.6567 11.8704 8.79894 12.464C7.51717 12.8735 6.83847 13.185 6.56295 13.4897C6.25604 13.8293 6.26871 14.7723 6.60085 16.317C6.91253 17.7664 6.95181 18.5521 6.7466 19.234C6.56469 19.8384 6.2755 20.2521 5.1849 21.4685C4.19553 22.5719 3.76188 23.2565 3.76316 23.7124C3.76454 24.1482 4.19571 24.8018 5.30155 26.0438C6.97476 27.9232 7.14143 28.5539 6.61517 31.0128C6.45713 31.7509 6.33213 32.6094 6.33213 32.956C6.33213 33.4923 6.36498 33.616 6.57313 33.8633C6.89161 34.2418 7.22494 34.3996 8.81014 34.9218C10.4055 35.4474 10.7214 35.5988 11.2602 36.0954C11.7834 36.5776 12.1759 37.3586 12.6538 38.8683C13.4336 41.3315 13.7391 41.5006 16.3818 40.9333C19.0711 40.3559 19.6259 40.5182 21.8426 42.5314C22.701 43.3109 23.4408 43.7792 23.8109 43.7775C24.2322 43.7755 24.9737 43.2955 26.0644 42.3188C26.8267 41.6362 27.4237 41.1852 27.8435 40.9747C28.4125 40.6894 28.5514 40.6579 29.2399 40.6579C29.7413 40.6579 30.449 40.7527 31.2958 40.9333C33.9174 41.4923 34.223 41.3317 34.9623 39.0059C35.8586 36.1865 36.3131 35.7106 38.8675 34.9188C40.1442 34.5229 40.9494 34.1288 41.1807 33.7865C41.4249 33.425 41.3857 32.4737 41.0705 31.113C40.8863 30.3185 40.8031 29.7113 40.7997 29.1378C40.7953 28.3853 40.8216 28.2558 41.0895 27.7153C41.2794 27.332 41.7436 26.7198 42.3955 25.9929C43.5669 24.6867 43.8694 24.2206 43.8694 23.7228C43.8694 23.1725 43.5857 22.7169 42.4417 21.4304C40.6441 19.4087 40.5264 18.9641 41.0714 16.2514C41.4331 14.4511 41.4441 14.0056 41.1373 13.5913C40.8288 13.1746 40.3945 12.956 38.9373 12.4836C37.2863 11.9484 36.7489 11.6799 36.254 11.143C35.7703 10.6182 35.5358 10.1205 34.9739 8.42598C34.5872 7.26012 34.4309 6.9121 34.1536 6.5995C33.8438 6.25047 33.7619 6.20935 33.3001 6.17108C32.9393 6.14107 32.3747 6.2166 31.3772 6.42815C29.8807 6.74543 28.9402 6.80462 28.2968 6.62189C27.7689 6.47193 27.0738 5.98091 25.962 4.97236C24.6343 3.76805 24.1396 3.50997 23.5012 3.68875Z" fill="#D6E8F2"/>
</svg>
