<svg width="27" height="20" viewBox="0 0 27 20" fill="none" xmlns="http://www.w3.org/2000/svg">
<g clip-path="url(#clip0_2_1091)">
<path fill-rule="evenodd" clip-rule="evenodd" d="M0 0H38V1.53908H0V0ZM0 3.07812H38V4.61721H0V3.07812ZM0 6.15233H38V7.69529H0V6.15233ZM0 9.23046H38V10.7695H0V9.23046ZM0 12.3086H38V13.8477H0V12.3086ZM0 15.3828H38V16.9219H0V15.3828ZM0 18.4609H38V20H0V18.4609Z" fill="#BD3D44"/>
<path fill-rule="evenodd" clip-rule="evenodd" d="M0 1.53906H38V3.0781H0V1.53906ZM0 4.61715H38V6.15231H0V4.61715ZM0 7.6914H38V9.23044H0V7.6914ZM0 10.7695H38V12.3086H0V10.7695ZM0 13.8476H38V15.3867H0V13.8476ZM0 16.9219H38V18.4609H0V16.9219Z" fill="white"/>
<path fill-rule="evenodd" clip-rule="evenodd" d="M0 0H15.1992V10.7695H0V0Z" fill="#192F5D"/>
<path fill-rule="evenodd" clip-rule="evenodd" d="M1.2656 0.460938L1.40623 0.886646H1.85156L1.49215 1.1484L1.6289 1.57806L1.2656 1.31244L0.906229 1.57415L1.04294 1.1484L0.679688 0.886646H1.13281L1.2656 0.460938ZM3.80077 0.460938L3.93748 0.886646H4.38669L4.0234 1.1484L4.16015 1.57806L3.80077 1.31244L3.43748 1.57415L3.57419 1.1484L3.21481 0.886646H3.66015L3.80077 0.460938ZM6.33202 0.460938L6.47265 0.886688H6.91406L6.55469 1.14844L6.69135 1.5781L6.3281 1.31248L5.96873 1.57419L6.10544 1.14844L5.74215 0.886688H6.1914L6.33202 0.460938ZM8.86719 0.460938L9.00385 0.886688H9.4531L9.08981 1.14844L9.23044 1.5781L8.86714 1.31248L8.50389 1.57419L8.64452 1.14844L8.28123 0.886688H8.72656L8.86719 0.460938ZM11.3984 0.460938L11.5391 0.886688H11.9844L11.625 1.14844L11.7617 1.5781L11.3984 1.31248L11.039 1.57419L11.1758 1.14844L10.8164 0.886688H11.2617L11.3984 0.460938ZM13.9336 0.460938L14.0703 0.886688H14.5195L14.1562 1.14844L14.2969 1.5781L13.9336 1.31248L13.5703 1.57419L13.7109 1.14844L13.3476 0.886688H13.7969L13.9336 0.460938ZM2.53515 1.53898L2.67185 1.96481H3.12106L2.75777 2.22648L2.8906 2.65231L2.53902 2.39056L2.17577 2.65227L2.30465 2.22652L1.9531 1.96477H2.39844L2.53515 1.53898ZM5.0664 1.53898L5.20702 1.96481H5.65231L5.28902 2.22648L5.42969 2.65231L5.06635 2.39056L4.7031 2.65227L4.84373 2.22652L4.48044 1.96477H4.92965L5.0664 1.53898ZM7.60156 1.53898L7.73823 1.96481H8.18748L7.82419 2.22648L7.9609 2.65231L7.60152 2.39056L7.23827 2.65227L7.37498 2.22656L7.0156 1.96481H7.46094L7.60156 1.53898ZM10.1328 1.53898L10.2734 1.96481H10.7187L10.3554 2.22648L10.4961 2.65231L10.1328 2.39056L9.77339 2.65227L9.91014 2.22652L9.54685 1.96477H9.99998L10.1328 1.53898ZM12.6679 1.53898L12.8046 1.96481H13.2539L12.8906 2.22648L13.0273 2.65231L12.6679 2.39056L12.3046 2.65227L12.4414 2.22652L12.082 1.96477H12.5273L12.6679 1.53898ZM1.2656 2.61331L1.40623 3.0469H1.85156L1.49215 3.3086L1.6289 3.7344L1.2656 3.46877L0.906229 3.7344L1.04294 3.30469L0.679688 3.04302H1.13281L1.2656 2.61331ZM3.80077 2.61331L3.93748 3.0429H4.38669L4.0234 3.3046L4.16015 3.73044L3.80077 3.46477L3.43748 3.7304L3.57419 3.30073L3.21481 3.03902H3.66015L3.80077 2.61331ZM6.33202 2.61331L6.47265 3.04298H6.91406L6.55469 3.30469L6.69135 3.73052L6.3281 3.46485L5.96873 3.73048L6.10544 3.30081L5.74215 3.0391H6.1914L6.33202 2.61331ZM8.86719 2.61331L9.00385 3.04298H9.4531L9.08981 3.30469L9.23044 3.73052L8.86714 3.46485L8.50389 3.73048L8.64452 3.30081L8.28123 3.0391H8.72656L8.86719 2.61331ZM11.3984 2.61331L11.5391 3.04298H11.9844L11.625 3.30465L11.7617 3.73048L11.3984 3.46481L11.039 3.73044L11.1758 3.30077L10.8164 3.03906H11.2617L11.3984 2.61331ZM13.9336 2.61331L14.0703 3.04298H14.5195L14.1562 3.30469L14.2969 3.73052L13.9336 3.46485L13.5703 3.73048L13.7109 3.30081L13.3476 3.0391H13.7969L13.9336 2.61331ZM2.53515 3.6914L2.67185 4.11719H3.12106L2.75777 4.37885L2.89452 4.80856L2.53515 4.54294L2.17185 4.80465L2.30856 4.3789L1.94919 4.11719H2.39456L2.53515 3.6914ZM5.0664 3.6914L5.20702 4.11719H5.65231L5.28902 4.37885L5.42969 4.80856L5.06635 4.54294L4.7031 4.80465L4.84373 4.3789L4.48044 4.11719H4.92965L5.0664 3.6914ZM7.60156 3.6914L7.73823 4.11719H8.18748L7.82419 4.37885L7.9609 4.80856L7.60152 4.54294L7.23827 4.80465L7.37498 4.3789L7.0156 4.11719H7.46094L7.60156 3.6914ZM10.1328 3.6914L10.2734 4.11719H10.7187L10.3594 4.37885L10.4961 4.80856L10.1328 4.54294L9.77339 4.80465L9.91014 4.3789L9.54685 4.11719H9.99998L10.1328 3.6914ZM12.6679 3.6914L12.8046 4.11719H13.2539L12.8906 4.37885L13.0273 4.80856L12.6679 4.54294L12.3046 4.80465L12.4414 4.3789L12.082 4.11719H12.5273L12.6679 3.6914ZM1.2656 4.76952L1.40623 5.19531H1.85156L1.49215 5.45698L1.6289 5.88669L1.2656 5.62106L0.906229 5.88277L1.04294 5.45702L0.679688 5.19531H1.13281L1.2656 4.76952ZM3.80077 4.76952L3.93748 5.19531H4.38669L4.0234 5.45698L4.16015 5.88281L3.80077 5.62106L3.43748 5.88277L3.57419 5.45702L3.21481 5.19531H3.66015L3.80077 4.76952ZM6.33202 4.76952L6.47265 5.19531H6.91406L6.55469 5.45698L6.69135 5.88669L6.3281 5.62106L5.96873 5.88277L6.10544 5.45702L5.74215 5.19531H6.1914L6.33202 4.76952ZM8.86719 4.76952L9.00385 5.19531H9.4531L9.08981 5.45698L9.23044 5.88669L8.86714 5.62106L8.50389 5.88277L8.64452 5.45702L8.28123 5.19531H8.72656L8.86719 4.76952ZM11.3984 4.76952L11.5391 5.19531H11.9844L11.625 5.45698L11.7617 5.88669L11.3984 5.62106L11.039 5.88277L11.1758 5.45702L10.8164 5.19531H11.2617L11.3984 4.76952ZM13.9336 4.76952L14.0703 5.19531H14.5195L14.1562 5.45698L14.2969 5.88669L13.9336 5.62106L13.5703 5.88277L13.7109 5.45702L13.3476 5.19531H13.7969L13.9336 4.76952ZM2.53515 5.84765L2.67185 6.27344H3.12106L2.75777 6.5351L2.89452 6.96094L2.53515 6.69531L2.17185 6.96094L2.30856 6.53123L1.94919 6.26952H2.39456L2.53515 5.84765ZM5.0664 5.84765L5.20702 6.27344H5.65231L5.28902 6.5351L5.42969 6.96094L5.06635 6.69531L4.7031 6.96094L4.84373 6.53123L4.48044 6.26952H4.92965L5.0664 5.84765ZM7.60156 5.84765L7.73823 6.27344H8.18748L7.82419 6.5351L7.9609 6.96094L7.60152 6.69531L7.23827 6.96094L7.37498 6.53123L7.0156 6.26952H7.46094L7.60156 5.84765ZM10.1328 5.84765L10.2734 6.27344H10.7187L10.3594 6.5351L10.4961 6.96094L10.1328 6.69531L9.77339 6.96094L9.91014 6.53123L9.54685 6.26952H9.99998L10.1328 5.84765ZM12.6679 5.84765L12.8046 6.27344H13.2539L12.8906 6.5351L13.0273 6.96094L12.6679 6.69531L12.3046 6.96094L12.4414 6.53123L12.082 6.26952H12.5273L12.6679 5.84765ZM1.2656 6.92185L1.40623 7.35156H1.85156L1.49215 7.61323L1.6289 8.03515L1.2656 7.77344L0.906229 8.0351L1.04294 7.60935L0.679688 7.34765H1.13281L1.2656 6.92185ZM3.80077 6.92185L3.93748 7.35156H4.38669L4.0234 7.61323L4.16406 8.03515L3.80073 7.77344L3.43748 8.0351L3.5781 7.60935L3.21481 7.34765H3.66015L3.80077 6.92185ZM6.33202 6.92185L6.47265 7.35156H6.91406L6.55469 7.61323L6.69135 8.03515L6.3281 7.77344L5.96873 8.0351L6.10544 7.60935L5.74215 7.34765H6.1914L6.33202 6.92185ZM8.86719 6.92185L9.00385 7.35156H9.4531L9.08981 7.61323L9.23044 8.03515L8.86714 7.77344L8.50389 8.0351L8.64452 7.60935L8.28123 7.34765H8.72656L8.86719 6.92185ZM11.3984 6.92185L11.5391 7.35156H11.9844L11.625 7.61323L11.7617 8.03515L11.3984 7.77344L11.039 8.0351L11.1758 7.60935L10.8164 7.34765H11.2617L11.3984 6.92185ZM13.9336 6.92185L14.0703 7.35156H14.5195L14.1562 7.61323L14.2969 8.03515L13.9336 7.77344L13.5703 8.0351L13.7109 7.60935L13.3476 7.34765H13.7969L13.9336 6.92185ZM2.53515 7.99998L2.67185 8.42577H3.12106L2.75777 8.68748L2.89452 9.11719L2.53515 8.85156L2.17185 9.11323L2.30856 8.68748L1.94919 8.42577H2.39456L2.53515 7.99998ZM5.0664 7.99998L5.20702 8.42577H5.65231L5.28902 8.68748L5.42969 9.11719L5.06635 8.85156L4.7031 9.11323L4.84373 8.68748L4.48044 8.42577H4.92965L5.0664 7.99998ZM7.60156 7.99998L7.73823 8.42577H8.18748L7.82419 8.68748L7.9609 9.11719L7.60152 8.85156L7.23827 9.11323L7.37498 8.68748L7.0156 8.42577H7.46094L7.60156 7.99998ZM10.1328 7.99998L10.2734 8.42577H10.7187L10.3594 8.68748L10.4961 9.11719L10.1328 8.85156L9.77339 9.11323L9.91014 8.68748L9.54685 8.42577H9.99998L10.1328 7.99998ZM12.6679 7.99998L12.8046 8.42577H13.2539L12.8906 8.68748L13.0273 9.11719L12.6679 8.85156L12.3046 9.11323L12.4414 8.68748L12.082 8.42577H12.5273L12.6679 7.99998ZM1.2656 9.0781L1.40623 9.5039H1.85156L1.49215 9.7656L1.6289 10.1914L1.2656 9.92969L0.906229 10.1914L1.04294 9.76169L0.679688 9.49998H1.13281L1.2656 9.0781ZM3.80077 9.0781L3.93748 9.5039H4.38669L4.0234 9.7656L4.16406 10.1914L3.80073 9.92969L3.43748 10.1914L3.5781 9.76169L3.21481 9.49998H3.66015L3.80077 9.0781ZM6.33202 9.0781L6.47265 9.5039H6.91406L6.56248 9.7656L6.69919 10.1914L6.3359 9.92969L5.97652 10.1914L6.11327 9.76169L5.74998 9.49998H6.19919L6.33202 9.0781ZM8.86719 9.0781L9.00385 9.5039H9.4531L9.08981 9.7656L9.23044 10.1914L8.86714 9.92969L8.50389 10.1914L8.64452 9.76169L8.28123 9.49998H8.72656L8.86719 9.0781ZM11.3984 9.0781L11.5391 9.5039H11.9844L11.625 9.7656L11.7617 10.1914L11.3984 9.92969L11.039 10.1914L11.1758 9.76169L10.8164 9.49998H11.2617L11.3984 9.0781ZM13.9336 9.0781L14.0703 9.5039H14.5195L14.1562 9.7656L14.2969 10.1914L13.9336 9.92969L13.5703 10.1914L13.7109 9.76169L13.3476 9.49998H13.7969L13.9336 9.0781Z" fill="white"/>
</g>
<defs>
<clipPath id="clip0_2_1091">
<rect width="26.6667" height="20" fill="white"/>
</clipPath>
</defs>
</svg>
