<svg width="48" height="48" viewBox="0 0 48 48" fill="none" xmlns="http://www.w3.org/2000/svg">
<path fill-rule="evenodd" clip-rule="evenodd" d="M24.2974 8.64218C24.005 8.74901 24 8.77269 24.1792 9.20157C24.3723 9.66358 24.7356 10.0624 25.224 10.3487C25.5878 10.5619 25.7528 10.5982 26.3595 10.5982C27.3109 10.5982 27.4525 10.4749 27.1599 9.90147C26.8723 9.33758 26.4181 8.91485 25.8802 8.71046C25.3856 8.52259 24.7053 8.49322 24.2974 8.64218ZM20.6768 9.45442C20.3666 9.57933 19.7518 10.2364 19.5958 10.6096C19.4329 10.9996 19.4116 11.9601 19.5568 12.3765C19.6809 12.7325 19.8515 12.7417 20.3296 12.4183C20.8016 12.0989 20.8728 12.0254 21.1243 11.5985C21.2979 11.3037 21.334 11.1082 21.3356 10.4541C21.3381 9.44478 21.2044 9.24195 20.6768 9.45442ZM22.5925 10.2164C22.3703 10.453 22.3235 10.9603 22.5077 11.1362C22.5708 11.1964 22.8083 11.3889 23.0354 11.5639C25.1222 13.1724 26.1688 15.4782 26.1601 18.4476C26.1563 19.7414 26.0523 20.3247 25.7709 20.6316C25.2564 21.1928 25.1626 21.3178 24.9789 21.6868C24.7956 22.0549 24.5934 22.6507 24.4379 23.2811L24.3662 23.5716L23.7586 23.0057C23.0479 22.3438 22.7229 21.8898 22.2042 20.8338C21.5669 19.5366 21.4118 17.8251 21.8065 16.4446C21.9725 15.8639 22.5059 14.7422 22.7157 14.5324C22.7905 14.4575 22.8519 14.3665 22.8519 14.3301C22.8519 14.2938 22.9995 14.1074 23.1801 13.916C23.7921 13.2672 23.6409 12.5371 22.8945 12.5371C22.5882 12.5371 22.4936 12.5969 22.1069 13.0356C21.7368 13.4552 21.1233 14.3755 20.9799 14.7258C20.9582 14.7789 20.8293 14.6865 20.6935 14.5205C19.4866 13.0446 17.8468 12.0246 15.9685 11.5813C14.3918 11.209 14.2103 11.2032 13.8994 11.5142C13.4383 11.9751 13.7536 12.5919 14.5083 12.7053C15.8282 12.9035 17.1744 13.3851 18.0794 13.9828C18.7072 14.3974 19.574 15.3097 19.9144 15.9142L20.2192 16.4554L20.2278 17.8875C20.2367 19.3712 20.3551 20.0701 20.7566 21.0075C20.8515 21.2291 20.9166 21.423 20.9013 21.4383C20.886 21.4536 20.7094 21.4254 20.5089 21.3757C20.3084 21.3259 19.7142 21.2252 19.1884 21.1517C16.9437 20.8382 15.3505 19.3956 15.0368 17.3921C14.9241 16.6728 14.9811 15.2768 15.1559 14.4804C15.2975 13.835 15.2 13.4864 14.8426 13.3608C14.4955 13.2387 14.1163 13.3898 13.9621 13.7115C13.5544 14.562 13.4505 16.858 13.7633 18.0995C14.0163 19.1033 14.5544 20.091 15.1605 20.6641C15.302 20.7979 15.4178 20.9322 15.4178 20.9624C15.4178 21.0713 14.0387 21.0143 13.3817 20.8783C12.6275 20.7222 11.7494 20.3213 11.3277 19.9405C11.1731 19.8008 10.8756 19.4336 10.6667 19.1244C10.1688 18.3872 9.88029 18.2748 9.41874 18.6378C9.10394 18.8854 9.10614 19.2156 9.42627 19.7885C10.0294 20.8677 11.3978 21.8548 12.7173 22.1626C13.5415 22.3549 15.3303 22.4782 17.2993 22.4787C19.4634 22.479 20.2871 22.6369 21.7046 23.3228C23.3659 24.1266 24.5799 25.7829 25.0064 27.8275C25.2135 28.82 25.1907 30.6943 24.9604 31.6178C24.7776 32.3506 24.2685 33.7439 24.1242 33.9061C24.0166 34.0271 23.9734 33.962 23.7552 33.3514C23.3655 32.2603 23.1304 30.8996 23.1306 29.7363C23.1308 28.929 23.3163 27.4523 23.4879 26.8918C23.6328 26.4186 23.6105 26.2648 23.3608 26.0151C22.9024 25.5567 22.3306 25.8336 22.1173 26.6172L21.9875 27.0937L21.6166 27.0377C19.8443 26.77 18.1734 26.7955 16.5192 27.1155C15.4163 27.3289 14.539 27.2558 13.864 26.8946L13.6494 26.7798L13.96 26.6295C14.3334 26.4489 15.1567 25.651 15.3 25.3309C15.8896 24.0138 15.5602 22.9344 14.6394 23.1655C14.3839 23.2297 14.1174 23.6673 14.144 23.9789C14.1891 24.5068 14.1214 24.6999 13.7728 25.0382C13.5748 25.2304 13.2669 25.4324 13.0886 25.4871C12.7372 25.595 12.7194 25.5809 12.3902 24.9329C11.8719 23.913 9.49235 22.5961 8.76574 22.9272C8.49343 23.0513 8.31713 23.4402 8.39413 23.747C8.45158 23.9757 8.93608 24.3205 9.20086 24.321C9.45435 24.3216 10.1952 24.6894 10.6092 25.0204C10.8408 25.2055 11.2123 25.6974 11.5729 26.2965C12.2137 27.361 12.695 27.876 13.3443 28.1914C13.7327 28.3801 13.8881 28.5432 13.6795 28.5432C13.4955 28.5432 12.1852 29.6858 11.7031 30.2666C11.0601 31.0413 11.0398 31.4282 11.6259 31.7405C11.9237 31.8991 12.0993 31.8716 12.3244 31.6311C13.671 30.1935 14.227 29.7405 15.4291 29.1017C16.9264 28.3061 18.3903 28.0736 20.4195 28.3088C21.1207 28.39 21.7075 28.4695 21.7233 28.4854C21.7391 28.5011 21.7671 29.1711 21.7857 29.9742C21.8041 30.7772 21.8683 31.6407 21.9282 31.8931C21.9881 32.1455 22.0806 32.5378 22.1337 32.765C22.3798 33.8174 23.0108 35.3247 23.5746 36.2067L23.8679 36.6656L20.3689 36.7114L16.8698 36.7573L16.6945 36.974C16.4673 37.2548 16.4723 37.5449 16.7094 37.8463L16.8996 38.0881H20.8929H24.8864L25.7069 38.9141C26.4548 39.667 26.5584 39.7401 26.8781 39.7401C27.3231 39.7401 27.5721 39.4867 27.5597 39.0466C27.5526 38.8001 27.4712 38.6571 27.1975 38.4105L26.8442 38.0923L29.008 38.0902C31.1497 38.0881 31.1737 38.0859 31.3713 37.8757C31.6284 37.602 31.6315 37.162 31.3778 36.9322C31.1993 36.7705 30.9725 36.7538 28.3753 36.7114L25.5659 36.6656L25.2133 36.1608L24.8607 35.656L29.2673 35.6101C33.5386 35.5656 33.6781 35.5586 33.8126 35.3807C34.0228 35.1023 33.9914 34.6649 33.7446 34.433C33.5332 34.2343 33.5129 34.2334 29.5261 34.2334H25.5199L25.6951 33.8246C26.3723 32.2451 26.6807 30.5874 26.5771 29.0843C26.5331 28.4451 26.546 28.1727 26.6226 28.1253C26.9056 27.9504 28.6492 28.0746 29.9188 28.36C30.1459 28.411 30.4763 28.479 30.653 28.511C31.1114 28.5939 32.2208 29.1326 32.7368 29.5228C33.3624 29.9958 33.9993 30.6766 34.382 31.2809C34.8408 32.0055 35.0527 32.2143 35.3293 32.2143C35.889 32.2143 36.1696 31.7176 35.9317 31.1482C35.7638 30.7463 35.1068 29.8201 34.6535 29.3461C34.4724 29.1566 34.3241 28.9811 34.3241 28.956C34.3241 28.9309 34.4592 28.9103 34.6242 28.9103C35.0466 28.9103 36.1797 28.5826 36.7409 28.2983C37.0011 28.1664 37.4933 27.7791 37.8348 27.4377C38.8856 26.3869 39.3467 25.1135 39.362 23.22C39.372 21.9764 39.1808 21.568 38.5885 21.568C38.0731 21.568 37.9449 21.8239 37.9778 22.7873C38.0674 25.4056 36.9798 27.065 34.9207 27.4519C34.2889 27.5706 32.6127 27.5084 31.8461 27.3378C31.5685 27.276 31.325 27.213 31.305 27.1978C31.285 27.1827 31.4346 26.9902 31.6374 26.7702C32.1257 26.2404 32.5627 25.3032 32.7062 24.478C32.8406 23.7049 32.7713 23.3864 32.4352 23.2333C31.8352 22.9599 31.4841 23.2312 31.3742 24.0528C31.2271 25.1524 30.5025 26.2199 29.663 26.5739C29.4437 26.6663 28.9256 26.7003 27.7669 26.698L26.1724 26.6949L25.9347 26.0535C25.6076 25.1711 25.6166 24.609 25.9658 24.1014C26.2772 23.6487 26.6555 23.3417 27.3096 23.0104C28.2427 22.5379 28.7014 22.4788 31.2731 22.5C33.6524 22.5195 34.175 22.4723 35.1501 22.1501C36.6839 21.6432 37.6633 20.7991 38.5509 19.2189C38.9075 18.584 38.6614 17.9887 38.0422 17.9887C37.7155 17.9887 37.4739 18.2273 37.1646 18.8553C36.9556 19.2797 36.0979 20.1589 35.6471 20.4109C34.4848 21.0604 33.1014 21.2753 31.1963 21.102C29.4109 20.9396 28.5694 21.0533 26.7524 21.7024C26.1983 21.9005 27.9444 20.6409 29.0469 20.0474C29.6296 19.7338 29.7156 19.6758 30.4307 19.1147C31.2797 18.4487 31.7891 17.8071 32.0765 17.0424C32.2078 16.693 32.3192 16.5617 32.6104 16.4131C33.0897 16.1686 34.1956 16.0924 35.1143 16.2406C35.7676 16.346 35.8343 16.3414 36.0574 16.1756C36.3681 15.9446 36.4326 15.4165 36.1808 15.1647C35.9069 14.8908 35.0236 14.751 33.8531 14.7964C33.2792 14.8186 32.7478 14.8542 32.6721 14.8755C32.5634 14.9059 32.5301 14.808 32.5138 14.4093C32.4876 13.7715 32.3045 12.6767 32.1837 12.4361C31.9864 12.0432 31.6735 11.9384 31.2601 12.1268C30.9214 12.2811 30.783 12.683 30.9402 13.0556C31.1122 13.4633 31.1135 15.7088 30.942 16.1531C30.6285 16.9655 30.582 17.0358 29.9146 17.7066C29.5016 18.1217 27.7891 19.2736 27.585 19.2736C27.5561 19.2736 27.5325 18.7677 27.5325 18.1493C27.5325 17.1519 27.3567 15.746 27.2004 15.4931C27.0835 15.3038 27.1617 14.6411 27.3595 14.1445C27.9698 12.6132 29.1626 11.6668 30.7793 11.4311C31.3773 11.344 31.706 11.0283 31.6267 10.6174C31.555 10.2465 31.2652 10.004 30.8934 10.004C30.4574 10.004 29.3141 10.3449 28.6432 10.675C27.9228 11.0294 26.8248 12.0728 26.5003 12.7112L26.275 13.1545L25.9061 12.6118C25.3762 11.8319 24.7396 11.15 23.9701 10.5379C23.2197 9.94112 22.9174 9.87054 22.5925 10.2164ZM33.7422 11.9363C33.2505 12.323 33.0889 13.1127 33.3774 13.7179C33.5764 14.1352 33.7878 14.1315 34.113 13.7052C34.3362 13.4124 34.37 13.2862 34.37 12.7441C34.37 12.2357 34.3349 12.0848 34.1804 11.9303L33.9908 11.7407L33.7422 11.9363ZM28.9181 13.7238C28.3924 14.1988 28.142 14.8518 28.1988 15.599C28.2458 16.2165 28.5653 16.9791 28.7771 16.9791C28.9658 16.9791 29.5208 16.3993 29.731 15.9824C30.0179 15.4135 30.0207 14.5599 29.7376 13.9555C29.6205 13.7054 29.4679 13.479 29.3984 13.4524C29.329 13.4257 29.1129 13.5479 28.9181 13.7238ZM10.3848 15.4691C10.2034 15.867 10.252 16.9253 10.4731 17.3956C10.6851 17.8467 11.2884 18.4212 11.6438 18.5104C12.2273 18.6568 12.4011 17.2595 11.9172 16.3111C11.6936 15.8726 11.6138 15.7854 11.1491 15.47C10.7127 15.1739 10.5193 15.1737 10.3848 15.4691ZM16.3913 15.4723C16.3607 15.5522 16.3356 15.9471 16.3356 16.35C16.3356 17.5705 16.8675 18.4137 17.9617 18.928C18.2755 19.0756 18.5721 19.1717 18.6209 19.1416C18.6695 19.1115 18.76 18.8605 18.822 18.5837C19.0295 17.6564 18.65 16.5922 17.8735 15.9241C17.238 15.3774 16.5126 15.1562 16.3913 15.4723ZM23.5909 16.222C22.7838 17.2004 22.7384 18.5395 23.4727 19.702C23.8695 20.3299 24.1554 20.2056 24.6681 19.1818C24.991 18.5371 24.9371 17.3096 24.5576 16.6643C24.3241 16.2674 24.0113 15.8778 23.9262 15.8778C23.8979 15.8778 23.7471 16.0327 23.5909 16.222ZM33.8728 17.6531C33.2769 17.8548 32.305 18.9432 32.305 19.4088C32.305 19.6054 32.8586 19.7707 33.494 19.7639C34.5041 19.7529 35.3125 19.2433 35.7888 18.3173C35.9962 17.914 35.9997 17.8812 35.8514 17.7328C35.659 17.5403 34.3606 17.4879 33.8728 17.6531ZM36.022 23.1438C35.4571 23.334 35.183 23.4932 34.8553 23.8207C34.277 24.3991 33.9665 25.3035 34.1007 26.0187C34.1633 26.3529 34.1734 26.3602 34.5069 26.3155C35.2461 26.2164 35.9784 25.6791 36.3399 24.9704C36.667 24.329 36.7148 23.0242 36.4103 23.0437C36.3482 23.0477 36.1735 23.0927 36.022 23.1438ZM18.3088 23.878C17.7818 24.0555 17.4786 24.2192 17.1377 24.5105C16.7392 24.8509 16.7191 24.954 17.001 25.2142C18.0391 26.1724 19.7503 26.1167 20.8274 25.0897L21.154 24.7783L20.8393 24.5004C20.1416 23.8845 19.0711 23.6212 18.3088 23.878ZM28.4044 23.8829C27.7975 24.098 27.2817 24.6577 27.1321 25.2636C27.078 25.4828 27.1041 25.5307 27.3239 25.6144C27.6147 25.7253 28.285 25.649 28.642 25.4644C28.9667 25.2965 29.4292 24.756 29.6019 24.3427C29.7326 24.03 29.7312 23.9947 29.5842 23.8873C29.3945 23.7486 28.7894 23.7463 28.4044 23.8829ZM8.77923 26.4017C8.66946 26.5115 8.71471 27.1353 8.8666 27.6056C9.1289 28.4178 9.86184 29.0403 10.6893 29.1537C11.0701 29.2059 11.087 29.1977 11.1449 28.9341C11.2654 28.3856 10.881 27.402 10.3581 26.9203C9.94472 26.5396 8.96361 26.2173 8.77923 26.4017ZM37.8576 28.5893C37.2583 28.8014 36.5109 29.751 36.7529 29.993C36.7884 30.0284 37.0722 30.0573 37.3834 30.0571C38.0645 30.0565 38.4728 29.8496 38.8396 29.3191C39.2027 28.7938 39.1798 28.5809 38.7524 28.5103C38.3028 28.436 38.2872 28.4374 37.8576 28.5893ZM18.1096 29.4695C17.5301 29.6922 16.9915 30.1978 16.7213 30.7726C16.6102 31.0092 16.5192 31.2189 16.5192 31.2385C16.5192 31.3583 17.1723 31.5069 17.695 31.5061C18.6643 31.5045 19.4769 31.0213 19.9379 30.1725C20.2106 29.6705 20.1566 29.4974 19.6907 29.3801C19.1106 29.234 18.6549 29.2598 18.1096 29.4695ZM28.1979 29.3871C27.9633 29.4661 27.8997 29.5385 27.9 29.7267C27.9007 30.2139 28.5523 30.9668 29.2671 31.3061C29.7417 31.5314 30.8406 31.5826 31.1899 31.3956C31.458 31.2522 31.4382 31.0457 31.106 30.522C30.7413 29.9467 30.6849 29.8945 30.0984 29.5878C29.5473 29.2997 28.7177 29.2121 28.1979 29.3871ZM14.3749 34.4754C14.0724 34.7779 14.0667 35.0932 14.3582 35.3848L14.5835 35.6101H18.0258C21.4487 35.6101 21.4691 35.609 21.6552 35.4092C21.91 35.1357 21.8984 34.6853 21.6299 34.433C21.4197 34.2355 21.382 34.2334 18.0172 34.2334H14.6169L14.3749 34.4754Z" fill="#D6E8F2"/>
<path fill-rule="evenodd" clip-rule="evenodd" d="M23.3318 2.3018C22.5942 2.44442 22.0134 2.83724 20.3396 4.32533C19.9066 4.71025 19.3966 5.10039 19.2062 5.19236C18.7233 5.42556 18.0247 5.39106 16.4086 5.05414C14.3106 4.61672 13.5301 4.7007 12.6926 5.45365C12.1413 5.94934 11.8034 6.61813 11.297 8.21562C10.6398 10.2889 10.4503 10.4799 8.39077 11.1445C6.78337 11.6634 6.27391 11.904 5.73792 12.3981C4.87328 13.1951 4.75011 14.1765 5.22699 16.4698C5.38063 17.2086 5.50637 18.0097 5.50637 18.25C5.50637 18.8881 5.17899 19.4515 4.16824 20.5525C3.11518 21.6999 2.79065 22.1557 2.55983 22.8123C2.10956 24.0936 2.46731 24.9555 4.28471 26.9679C4.77085 27.5062 5.2437 28.1119 5.33547 28.3138C5.57134 28.8327 5.54702 29.4238 5.22764 30.9303C4.92651 32.3512 4.87172 33.3352 5.05895 33.9603C5.22663 34.5198 5.92689 35.2462 6.62643 35.5864C6.94426 35.7408 7.69986 36.0205 8.3056 36.2077C9.94999 36.716 10.4051 36.9821 10.7365 37.6293C10.827 37.8059 11.0968 38.5493 11.336 39.2813C11.8547 40.8683 12.0081 41.1892 12.5068 41.7303C13.3531 42.6483 14.3105 42.7891 16.5 42.3172C18.0381 41.9857 18.7632 41.9581 19.2608 42.2119C19.452 42.3094 20.0689 42.8024 20.6318 43.3074C22.3063 44.8098 22.85 45.1109 23.8741 45.1035C24.737 45.0972 25.4047 44.7462 26.602 43.669C28.1623 42.2655 28.4371 42.0924 29.1722 42.0509C29.6221 42.0255 30.1033 42.0845 30.8908 42.2618C34.352 43.0411 35.2727 42.5301 36.3432 39.2357C37.0694 37.0007 37.1506 36.9205 39.4446 36.1757C41.5911 35.4787 42.2923 34.9602 42.637 33.8148C42.8307 33.171 42.8022 32.7458 42.4471 30.9817C42.2704 30.104 42.1259 29.2457 42.1259 29.0743C42.1259 28.5569 42.5275 27.9111 43.5893 26.7216C44.8614 25.2963 45.2463 24.5896 45.2463 23.679C45.2463 22.7733 44.8722 22.0878 43.6016 20.6656C43.0454 20.0431 42.5048 19.3955 42.4004 19.2264C42.0706 18.6928 42.0791 18.1895 42.4483 16.3826C42.8205 14.5608 42.8326 13.9165 42.5079 13.1827C42.1235 12.3136 41.4032 11.8507 39.4184 11.1972C37.0954 10.4323 37.0436 10.3782 36.2558 7.89311C35.5547 5.68126 34.8347 4.90968 33.3684 4.79881C32.8446 4.75916 32.4234 4.80909 31.2924 5.04505C29.5577 5.40684 28.9115 5.43438 28.405 5.16813C28.2031 5.06194 27.5217 4.51384 26.8907 3.95023C25.3003 2.5295 24.3735 2.10026 23.3318 2.3018ZM23.5014 3.68875C23.0776 3.80742 22.5981 4.1526 21.6134 5.04799C19.6208 6.85997 18.988 7.02397 16.2678 6.4332C14.8126 6.11721 14.3658 6.0882 13.9072 6.27974C13.4442 6.47321 13.1714 6.96918 12.6102 8.63799C12.3321 9.465 12.0022 10.3165 11.8771 10.5302C11.3457 11.4378 10.657 11.8704 8.79918 12.464C7.51741 12.8735 6.83871 13.185 6.56319 13.4897C6.25629 13.8293 6.26895 14.7723 6.6011 16.317C6.91278 17.7664 6.95206 18.5521 6.74684 19.234C6.56494 19.8384 6.27574 20.2521 5.18514 21.4685C4.19577 22.5719 3.76212 23.2565 3.76341 23.7124C3.76478 24.1482 4.19596 24.8018 5.30179 26.0438C6.975 27.9232 7.14167 28.5539 6.61541 31.0128C6.45737 31.7509 6.33237 32.6094 6.33237 32.956C6.33237 33.4923 6.36523 33.616 6.57338 33.8633C6.89185 34.2418 7.22519 34.3996 8.81038 34.9218C10.4058 35.4474 10.7217 35.5988 11.2605 36.0954C11.7836 36.5776 12.1762 37.3586 12.6541 38.8683C13.4339 41.3315 13.7393 41.5006 16.3821 40.9333C19.0714 40.3559 19.6262 40.5182 21.8429 42.5314C22.7013 43.3109 23.441 43.7792 23.8112 43.7775C24.2324 43.7755 24.9739 43.2955 26.0647 42.3188C26.827 41.6362 27.4239 41.1852 27.8437 40.9747C28.4127 40.6894 28.5516 40.6579 29.2401 40.6579C29.7415 40.6579 30.4492 40.7527 31.296 40.9333C33.9177 41.4923 34.2232 41.3317 34.9626 39.0059C35.8588 36.1865 36.3134 35.7106 38.8677 34.9188C40.1445 34.5229 40.9496 34.1288 41.1809 33.7865C41.4251 33.425 41.386 32.4737 41.0707 31.113C40.8866 30.3185 40.8033 29.7113 40.8 29.1378C40.7955 28.3853 40.8219 28.2558 41.0898 27.7153C41.2797 27.332 41.7439 26.7198 42.3958 25.9929C43.5672 24.6867 43.8697 24.2206 43.8697 23.7228C43.8697 23.1725 43.586 22.7169 42.442 21.4304C40.6443 19.4087 40.5266 18.9641 41.0716 16.2514C41.4333 14.4511 41.4443 14.0056 41.1375 13.5913C40.829 13.1746 40.3947 12.956 38.9376 12.4836C37.2866 11.9484 36.7491 11.6799 36.2543 11.143C35.7705 10.6182 35.536 10.1205 34.9741 8.42598C34.5875 7.26012 34.4312 6.9121 34.1538 6.5995C33.8441 6.25047 33.7621 6.20935 33.3004 6.17108C32.9395 6.14107 32.375 6.2166 31.3774 6.42815C29.8809 6.74543 28.9405 6.80462 28.297 6.62189C27.7692 6.47193 27.0741 5.98091 25.9623 4.97236C24.6345 3.76805 24.1398 3.50997 23.5014 3.68875Z" fill="#D6E8F2"/>
</svg>
