<svg width="48" height="48" viewBox="0 0 48 48" fill="none" xmlns="http://www.w3.org/2000/svg">
<g clip-path="url(#clip0_138_1795)">
<path d="M28.2104 46.3158H24.842V32.2436L35.0687 22.0168C35.1624 22.0213 35.2564 22.0239 35.3504 22.0239C37.1258 22.0239 38.9281 21.2399 40.2953 19.8728C41.8203 18.3477 42.6134 16.2779 42.4166 14.336C42.3763 13.9381 42.0617 13.6234 41.6638 13.5832C41.4695 13.5634 41.2705 13.5535 41.0721 13.5535C39.2964 13.5535 37.494 14.3376 36.1269 15.7046C34.7365 17.0952 33.9573 18.9382 33.9793 20.7244L24.842 29.8617V29.4737C24.842 29.0086 24.4649 28.6316 23.9999 28.6316C23.5348 28.6316 23.1578 29.0086 23.1578 29.4737V31.8944C23.1578 31.8946 23.1578 31.8947 23.1578 31.8949V46.3158H19.7894C19.3243 46.3158 18.9473 46.6928 18.9473 47.1579C18.9473 47.6229 19.3243 48 19.7894 48H28.2104C28.6755 48 29.0525 47.6229 29.0525 47.1579C29.0525 46.6928 28.6755 46.3158 28.2104 46.3158ZM37.3179 16.8956C38.2868 15.9265 39.5221 15.3376 40.7508 15.2494C40.6632 16.4688 40.0764 17.7098 39.1041 18.6819C38.1352 19.6509 36.8998 20.2399 35.6713 20.3281C35.7589 19.1087 36.3457 17.8678 37.3179 16.8956Z" fill="#294696"/>
<path d="M9.86779 10.3245C8.19558 10.3245 6.62379 11.0273 5.66326 12.2044C5.41042 12.5141 5.41042 12.9593 5.66326 13.2691C6.62379 14.4463 8.19569 15.149 9.86779 15.149C11.54 15.149 13.1118 14.4461 14.0724 13.2691C14.3253 12.9593 14.3253 12.5141 14.0724 12.2044C13.1118 11.0273 11.54 10.3245 9.86779 10.3245ZM9.86779 13.4649C8.99063 13.4649 8.16263 13.2007 7.53148 12.7368C8.16263 12.2729 8.99063 12.0087 9.86779 12.0087C10.7449 12.0087 11.5731 12.2729 12.2041 12.7368C11.5731 13.2007 10.7449 13.4649 9.86779 13.4649Z" fill="#294696"/>
<path d="M17.1516 9.125C17.3066 9.25142 17.4953 9.31468 17.684 9.31468C17.8728 9.31468 18.0614 9.25142 18.2165 9.125C19.4665 8.10521 20.2127 6.43489 20.2127 4.65732C20.2127 2.87974 19.4665 1.20942 18.2165 0.189632C17.9066 -0.0632105 17.4616 -0.0632105 17.1517 0.189632C15.9017 1.20953 15.1555 2.87974 15.1555 4.65732C15.1555 6.43489 15.9016 8.1051 17.1516 9.125ZM17.684 2.04437C18.2212 2.74068 18.5284 3.67079 18.5284 4.65732C18.5284 5.64384 18.2212 6.57395 17.684 7.27026C17.1468 6.57395 16.8396 5.64384 16.8396 4.65732C16.8396 3.67079 17.1468 2.74068 17.684 2.04437Z" fill="#294696"/>
<path d="M42.3366 25.0465C41.3759 23.8694 39.8042 23.1666 38.1321 23.1666C36.4597 23.1666 34.8881 23.8695 33.9274 25.0465C33.6746 25.3563 33.6746 25.8015 33.9274 26.1113C34.8881 27.2884 36.4598 27.9912 38.1321 27.9912C39.8043 27.9912 41.3759 27.2883 42.3366 26.1113C42.5895 25.8015 42.5895 25.3564 42.3366 25.0465ZM38.1321 26.307C37.2549 26.307 36.4268 26.0428 35.7957 25.5789C36.4268 25.115 37.2549 24.8508 38.1321 24.8508C39.0092 24.8508 39.8372 25.115 40.4683 25.5789C39.8372 26.0428 39.0092 26.307 38.1321 26.307Z" fill="#294696"/>
<path d="M29.7832 21.9672C29.9382 22.0936 30.1269 22.1568 30.3156 22.1568C30.5044 22.1568 30.6931 22.0936 30.8481 21.9672C32.0981 20.9473 32.8443 19.277 32.8443 17.4995C32.8443 15.722 32.0981 14.0517 30.8481 13.0318C30.5383 12.779 30.0931 12.779 29.7833 13.0318C28.5333 14.0517 27.7871 15.722 27.7871 17.4995C27.7871 19.277 28.5332 20.9473 29.7832 21.9672ZM30.3156 14.8865C30.8529 15.583 31.16 16.513 31.16 17.4995C31.16 18.486 30.8528 19.416 30.3156 20.1124C29.7784 19.416 29.4713 18.486 29.4713 17.4995C29.4713 16.513 29.7784 15.583 30.3156 14.8865Z" fill="#294696"/>
<path d="M20.3848 21.2992C20.056 20.9705 19.5228 20.9705 19.194 21.2992C18.8651 21.6282 18.8651 22.1612 19.194 22.4902L23.4045 26.7007C23.4066 26.7028 23.4089 26.7045 23.4109 26.7066C23.4286 26.724 23.4468 26.7407 23.466 26.7564C23.4761 26.7647 23.4867 26.7718 23.4972 26.7796C23.5088 26.7884 23.5202 26.7973 23.5323 26.8054C23.5444 26.8135 23.5569 26.8205 23.5694 26.828C23.5805 26.8346 23.5915 26.8416 23.6031 26.8478C23.6156 26.8546 23.6285 26.8603 23.6414 26.8663C23.6535 26.872 23.6654 26.8781 23.6778 26.8832C23.6901 26.8884 23.7027 26.8925 23.7154 26.897C23.7287 26.9018 23.742 26.9069 23.7557 26.9111C23.7682 26.9149 23.7809 26.9176 23.7936 26.9209C23.8076 26.9244 23.8214 26.9284 23.8356 26.9311C23.8502 26.9341 23.8649 26.9357 23.8797 26.9378C23.8921 26.9396 23.9043 26.9421 23.9169 26.9432C23.9445 26.946 23.9723 26.9474 24 26.9474C24.0278 26.9474 24.0555 26.946 24.0832 26.9432C24.0956 26.942 24.1077 26.9396 24.1199 26.938C24.1348 26.9358 24.1498 26.9341 24.1646 26.9311C24.1786 26.9284 24.1921 26.9245 24.2059 26.921C24.2188 26.9177 24.2319 26.9149 24.2446 26.911C24.2579 26.907 24.2707 26.902 24.2838 26.8973C24.2967 26.8927 24.3098 26.8884 24.3225 26.8831C24.3344 26.8782 24.3459 26.8724 24.3575 26.8669C24.3708 26.8606 24.3842 26.8547 24.3973 26.8477C24.408 26.842 24.4182 26.8354 24.4286 26.8292C24.4418 26.8214 24.4551 26.814 24.4679 26.8053C24.4788 26.7981 24.4891 26.7898 24.4996 26.7821C24.5112 26.7735 24.5229 26.7654 24.5341 26.7562C24.5493 26.7437 24.5635 26.7303 24.5777 26.7168C24.5835 26.7113 24.5898 26.7064 24.5955 26.7007C24.6014 26.6948 24.6064 26.6883 24.6122 26.6822C24.6254 26.6682 24.6386 26.6543 24.6508 26.6394C24.6604 26.6277 24.6688 26.6155 24.6777 26.6034C24.6851 26.5933 24.6929 26.5836 24.6999 26.5732C24.7088 26.5598 24.7166 26.5461 24.7247 26.5324C24.7306 26.5225 24.7368 26.5128 24.7423 26.5026C24.7496 26.489 24.7558 26.475 24.7623 26.4611C24.7675 26.4501 24.7731 26.4391 24.7778 26.4277C24.7833 26.4145 24.7878 26.4008 24.7926 26.3873C24.7971 26.3749 24.8019 26.3627 24.8057 26.35C24.8098 26.3364 24.8128 26.3226 24.8162 26.3089C24.8195 26.296 24.8231 26.2832 24.8257 26.2701C24.8288 26.2542 24.8307 26.2381 24.8331 26.222C24.8346 26.2108 24.8367 26.1998 24.8379 26.1886C24.8406 26.1607 24.8421 26.1327 24.8421 26.1047V19.0531C24.8421 19.0528 24.8421 19.0524 24.8421 19.0521V10.2105C24.8421 9.74543 24.4651 9.36837 24 9.36837C23.5349 9.36837 23.1579 9.74543 23.1579 10.2105V17.0195L14.0207 7.88237C14.0426 6.09616 13.2634 4.25311 11.8729 2.86269C10.5058 1.49553 8.70337 0.711426 6.92769 0.711426C6.72937 0.711426 6.53032 0.721426 6.336 0.74111C5.938 0.781426 5.62337 1.09606 5.58305 1.49395C5.38632 3.43574 6.17937 5.50553 7.70453 7.03079C9.07147 8.39774 10.8738 9.18185 12.6494 9.18185C12.7433 9.18185 12.8375 9.17922 12.9312 9.17479L23.1578 19.4014V24.0722L20.3848 21.2992ZM7.24884 2.40722C8.47747 2.49543 9.71284 3.08437 10.6818 4.05353C11.654 5.02564 12.2408 6.26658 12.3284 7.48595C11.0999 7.39774 9.86442 6.80879 8.89547 5.83974C7.92326 4.86764 7.33642 3.62669 7.24884 2.40722Z" fill="#294696"/>
</g>
<defs>
<clipPath id="clip0_138_1795">
<rect width="48" height="48" fill="white"/>
</clipPath>
</defs>
</svg>
